<?xml version="1.0" encoding="UTF-8"?>
<svg id="Camada_1" data-name="Camada 1" xmlns="http://www.w3.org/2000/svg" viewBox="0 0 1000 1000">
  <defs>
    <style>
      .cls-1, .cls-2 {
        stroke-width: 0px;
      }

      .cls-2 {
        fill: #fff;
      }
    </style>
  </defs>
  <rect class="cls-2" x="0" width="1000" height="1000"/>
  <g>
    <path class="cls-1" d="m343.53,777.37c-22.32,0-46.5-7.42-60.2-26.11-12.14-16.56-14.52-40.32-6.7-66.89,6.38-21.7,19.01-43.33,34.63-59.34,35.18-36.06,77.76-36.99,126.98-37.35,11.91-44.98,20.31-93.49,27.44-137.14,13.39-82,19.21-166.65,17.31-251.59l47.43-5.69,80.94,367.85c32.35-12.03,64.11-28.31,94.96-48.68l26.45,40.05c-35.9,23.71-73.05,42.41-111,55.92l32.66,148.41-46.88,10.31-31.9-144.97c-6.18,1.49-12.37,2.85-18.58,4.07-30.65,6.03-58.32,8.12-82.7,8.91-1.12,3.48-2.27,6.93-3.45,10.34-26.62,77.25-61.53,119.67-106.73,129.71-6.41,1.42-13.44,2.2-20.66,2.2Zm79.88-141.51c-38.26.75-59.55,3.98-77.79,22.68-10.18,10.43-18.75,25.15-22.94,39.37-3.73,12.67-2.94,21.83-.63,24.98,3.56,4.86,18.51,8.36,31.74,5.42,25.85-5.74,49.87-37.66,69.62-92.45Zm99.75-252.28c-2.7,25.09-6.07,50-10.1,74.69-6.62,40.56-14.33,85.25-24.96,128.21,18.42-1.06,38.23-3.14,59.72-7.36,5.85-1.15,11.69-2.44,17.52-3.86l-42.17-191.67Z"/>
    <circle class="cls-1" cx="715.46" cy="718.64" r="47.14"/>
  </g>
</svg>